<svg width="135" height="41" viewBox="0 0 135 41" fill="none" xmlns="http://www.w3.org/2000/svg">
<g clip-path="url(#clip0_4709_9538)">
<path d="M130.218 40.5391H5.30759C2.71218 40.5391 0.599609 38.4111 0.599609 35.8061V5.26506C0.599609 2.65906 2.71218 0.539062 5.30759 0.539062H130.218C132.812 0.539062 135 2.65906 135 5.26506V35.8061C135 38.4111 132.812 40.5391 130.218 40.5391Z" fill="#A6A6A6"/>
<path d="M134.037 35.8077C134.037 37.9237 132.33 39.6377 130.22 39.6377H5.30827C3.19868 39.6377 1.48633 37.9237 1.48633 35.8077V5.26469C1.48633 3.14969 3.19868 1.42969 5.30827 1.42969H130.219C132.33 1.42969 134.036 3.14969 134.036 5.26469L134.037 35.8077Z" fill="#161616"/>
<path d="M30.593 20.3233C30.5642 17.1003 33.2203 15.5323 33.3418 15.4593C31.8375 13.2563 29.5059 12.9553 28.6865 12.9313C26.7283 12.7243 24.8288 14.1083 23.8312 14.1083C22.8138 14.1083 21.2776 12.9513 19.622 12.9853C17.4915 13.0183 15.4984 14.2573 14.4053 16.1813C12.1494 20.1043 13.8319 25.8693 15.9932 29.0403C17.0744 30.5933 18.3377 32.3273 19.9914 32.2663C21.6091 32.1993 22.2134 31.2303 24.1657 31.2303C26.1001 31.2303 26.6676 32.2663 28.354 32.2273C30.0903 32.1993 31.1834 30.6673 32.2267 29.1003C33.4762 27.3203 33.9779 25.5673 33.9978 25.4773C33.957 25.4633 30.6259 24.1863 30.593 20.3233Z" fill="white"/>
<path d="M27.4081 10.8468C28.2782 9.75381 28.8736 8.26681 28.7083 6.75781C27.4489 6.81381 25.874 7.63281 24.967 8.70181C24.1646 9.64381 23.4478 11.1878 23.633 12.6398C25.0477 12.7458 26.5002 11.9228 27.4081 10.8468Z" fill="white"/>
<path d="M54.0054 32.0424H51.7445L50.506 28.1334H46.2012L45.0215 32.0424H42.8203L47.0853 18.7344H49.7195L54.0054 32.0424ZM50.1327 26.4934L49.0127 23.0184C48.8942 22.6634 48.6722 21.8274 48.3446 20.5114H48.3048C48.1744 21.0774 47.9643 21.9134 47.6756 23.0184L46.5755 26.4934H50.1327Z" fill="white"/>
<path d="M64.9734 27.127C64.9734 28.759 64.5343 30.049 63.6562 30.996C62.8698 31.839 61.8931 32.26 60.7273 32.26C59.4689 32.26 58.565 31.806 58.0144 30.898H57.9746V35.953H55.8521V25.606C55.8521 24.58 55.8252 23.527 55.7734 22.447H57.6401L57.7586 23.968H57.7984C58.5062 22.822 59.5804 22.25 61.022 22.25C62.149 22.25 63.0898 22.697 63.8424 23.592C64.597 24.488 64.9734 25.666 64.9734 27.127ZM62.811 27.205C62.811 26.271 62.602 25.501 62.1818 24.895C61.7229 24.263 61.1066 23.947 60.3341 23.947C59.8104 23.947 59.3345 24.123 58.9094 24.47C58.4833 24.82 58.2046 25.277 58.0742 25.843C58.0085 26.107 57.9756 26.323 57.9756 26.493V28.093C57.9756 28.791 58.1887 29.38 58.6148 29.861C59.0408 30.342 59.5944 30.582 60.2753 30.582C61.0748 30.582 61.697 30.272 62.142 29.654C62.588 29.035 62.811 28.219 62.811 27.205Z" fill="white"/>
<path d="M75.9607 27.127C75.9607 28.759 75.5216 30.049 74.6425 30.996C73.857 31.839 72.8804 32.26 71.7146 32.26C70.4562 32.26 69.5523 31.806 69.0027 30.898H68.9629V35.953H66.8404V25.606C66.8404 24.58 66.8135 23.527 66.7617 22.447H68.6284L68.7469 23.968H68.7867C69.4935 22.822 70.5677 22.25 72.0103 22.25C73.1363 22.25 74.0771 22.697 74.8317 23.592C75.5833 24.488 75.9607 25.666 75.9607 27.127ZM73.7983 27.205C73.7983 26.271 73.5882 25.501 73.1681 24.895C72.7092 24.263 72.0949 23.947 71.3214 23.947C70.7967 23.947 70.3218 24.123 69.8957 24.47C69.4696 24.82 69.1919 25.277 69.0614 25.843C68.9967 26.107 68.9629 26.323 68.9629 26.493V28.093C68.9629 28.791 69.1759 29.38 69.6 29.861C70.0261 30.341 70.5797 30.582 71.2626 30.582C72.0621 30.582 72.6843 30.272 73.1293 29.654C73.5753 29.035 73.7983 28.219 73.7983 27.205Z" fill="white"/>
<path d="M88.2467 28.3101C88.2467 29.4421 87.8554 30.3631 87.0699 31.0741C86.2068 31.8511 85.0051 32.2391 83.461 32.2391C82.0354 32.2391 80.8925 31.9631 80.0273 31.4101L80.5192 29.6331C81.451 30.1991 82.4734 30.4831 83.5875 30.4831C84.3869 30.4831 85.0091 30.3011 85.4561 29.9391C85.9011 29.5771 86.1231 29.0911 86.1231 28.4851C86.1231 27.9451 85.9399 27.4901 85.5726 27.1211C85.2072 26.7521 84.5969 26.4091 83.7447 26.0921C81.4251 25.2231 80.2663 23.9501 80.2663 22.2761C80.2663 21.1821 80.6725 20.2851 81.4858 19.5871C82.2962 18.8881 83.3774 18.5391 84.7294 18.5391C85.935 18.5391 86.9365 18.7501 87.7359 19.1711L87.2053 20.9091C86.4586 20.5011 85.6144 20.2971 84.6696 20.2971C83.923 20.2971 83.3396 20.4821 82.9214 20.8501C82.568 21.1791 82.3908 21.5801 82.3908 22.0551C82.3908 22.5811 82.5929 23.0161 82.9991 23.3581C83.3525 23.6741 83.9946 24.0161 84.9265 24.3851C86.0664 24.8461 86.9037 25.3851 87.4422 26.0031C87.9789 26.6191 88.2467 27.3901 88.2467 28.3101Z" fill="white"/>
<path d="M95.2633 24.0457H92.9238V28.7047C92.9238 29.8897 93.3359 30.4817 94.1623 30.4817C94.5416 30.4817 94.8562 30.4487 95.105 30.3827L95.1638 32.0017C94.7456 32.1587 94.1951 32.2377 93.5132 32.2377C92.6749 32.2377 92.0198 31.9807 91.5469 31.4677C91.076 30.9537 90.8391 30.0917 90.8391 28.8807V24.0437H89.4453V22.4437H90.8391V20.6867L92.9238 20.0547V22.4437H95.2633V24.0457Z" fill="white"/>
<path d="M105.82 27.165C105.82 28.64 105.4 29.851 104.562 30.798C103.683 31.773 102.516 32.259 101.061 32.259C99.6596 32.259 98.5436 31.792 97.7113 30.858C96.879 29.924 96.4629 28.745 96.4629 27.324C96.4629 25.837 96.891 24.619 97.7501 23.672C98.6073 22.724 99.7642 22.25 101.219 22.25C102.62 22.25 103.748 22.717 104.6 23.652C105.414 24.559 105.82 25.73 105.82 27.165ZM103.618 27.234C103.618 26.349 103.43 25.59 103.048 24.957C102.603 24.191 101.967 23.809 101.143 23.809C100.29 23.809 99.6417 24.192 99.1967 24.957C98.8154 25.591 98.6272 26.362 98.6272 27.274C98.6272 28.159 98.8154 28.918 99.1967 29.55C99.6556 30.316 100.297 30.698 101.124 30.698C101.934 30.698 102.571 30.308 103.03 29.53C103.421 28.885 103.618 28.118 103.618 27.234Z" fill="white"/>
<path d="M112.719 24.322C112.509 24.283 112.285 24.263 112.05 24.263C111.303 24.263 110.725 24.546 110.319 25.113C109.966 25.613 109.789 26.245 109.789 27.008V32.043H107.667L107.687 25.469C107.687 24.363 107.66 23.356 107.607 22.448H109.456L109.534 24.284H109.593C109.817 23.653 110.17 23.145 110.654 22.764C111.127 22.421 111.637 22.25 112.188 22.25C112.384 22.25 112.561 22.264 112.719 22.289V24.322Z" fill="white"/>
<path d="M122.213 26.7895C122.213 27.1715 122.188 27.4935 122.135 27.7565H115.768C115.792 28.7045 116.1 29.4295 116.691 29.9295C117.228 30.3765 117.922 30.6005 118.774 30.6005C119.717 30.6005 120.577 30.4495 121.351 30.1465L121.683 31.6265C120.779 32.0225 119.712 32.2195 118.48 32.2195C116.999 32.2195 115.836 31.7815 114.99 30.9065C114.146 30.0315 113.723 28.8565 113.723 27.3825C113.723 25.9355 114.116 24.7305 114.903 23.7695C115.728 22.7435 116.842 22.2305 118.243 22.2305C119.62 22.2305 120.663 22.7435 121.371 23.7695C121.931 24.5845 122.213 25.5925 122.213 26.7895ZM120.189 26.2365C120.203 25.6045 120.064 25.0585 119.777 24.5975C119.409 24.0045 118.845 23.7085 118.085 23.7085C117.391 23.7085 116.827 23.9975 116.396 24.5775C116.042 25.0385 115.832 25.5915 115.768 26.2355H120.189V26.2365Z" fill="white"/>
<path d="M49.4321 10.5458C49.4321 11.7228 49.0807 12.6088 48.3789 13.2038C47.7288 13.7528 46.8049 14.0278 45.6082 14.0278C45.0149 14.0278 44.5071 14.0018 44.082 13.9498V7.51881C44.6366 7.42881 45.2339 7.38281 45.879 7.38281C47.0189 7.38281 47.8781 7.63181 48.4575 8.12981C49.1066 8.69281 49.4321 9.49781 49.4321 10.5458ZM48.3321 10.5748C48.3321 9.81181 48.131 9.22681 47.7288 8.81881C47.3265 8.41181 46.7392 8.20781 45.9656 8.20781C45.6371 8.20781 45.3573 8.22981 45.1254 8.27581V13.1648C45.2538 13.1848 45.4888 13.1938 45.8302 13.1938C46.6287 13.1938 47.2449 12.9708 47.679 12.5248C48.113 12.0788 48.3321 11.4288 48.3321 10.5748Z" fill="white"/>
<path d="M55.2645 11.5742C55.2645 12.2992 55.0584 12.8932 54.6462 13.3592C54.2141 13.8382 53.6417 14.0772 52.9269 14.0772C52.238 14.0772 51.6894 13.8482 51.2802 13.3882C50.8721 12.9292 50.668 12.3502 50.668 11.6522C50.668 10.9222 50.878 10.3232 51.3001 9.85816C51.7223 9.39316 52.2897 9.16016 53.0045 9.16016C53.6935 9.16016 54.247 9.38916 54.6661 9.84816C55.0643 10.2942 55.2645 10.8702 55.2645 11.5742ZM54.1823 11.6082C54.1823 11.1732 54.0887 10.8002 53.9025 10.4892C53.6835 10.1132 53.3719 9.92516 52.9667 9.92516C52.5476 9.92516 52.229 10.1132 52.01 10.4892C51.8228 10.8002 51.7302 11.1792 51.7302 11.6272C51.7302 12.0622 51.8238 12.4352 52.01 12.7462C52.236 13.1222 52.5506 13.3102 52.9568 13.3102C53.355 13.3102 53.6676 13.1192 53.8926 12.7362C54.0857 12.4192 54.1823 12.0432 54.1823 11.6082Z" fill="white"/>
<path d="M63.0867 9.25781L61.6183 13.9718H60.6626L60.0543 11.9248C59.9 11.4138 59.7745 10.9058 59.677 10.4018H59.6581C59.5675 10.9198 59.442 11.4268 59.2807 11.9248L58.6346 13.9718H57.6679L56.2871 9.25781H57.3593L57.89 11.4988C58.0184 12.0288 58.1239 12.5338 58.2085 13.0118H58.2274C58.3051 12.6178 58.4335 12.1158 58.6147 11.5088L59.2807 9.25881H60.1309L60.7691 11.4608C60.9234 11.9978 61.0488 12.5148 61.1454 13.0128H61.1743C61.245 12.5278 61.3515 12.0108 61.4929 11.4608L62.0623 9.25881H63.0867V9.25781Z" fill="white"/>
<path d="M68.4945 13.9693H67.4512V11.2693C67.4512 10.4373 67.1366 10.0212 66.5054 10.0212C66.1958 10.0212 65.9459 10.1353 65.7517 10.3643C65.5596 10.5933 65.462 10.8633 65.462 11.1723V13.9683H64.4187V10.6023C64.4187 10.1883 64.4057 9.73925 64.3809 9.25325H65.2978L65.3466 9.99025H65.3754C65.4969 9.76125 65.6781 9.57225 65.916 9.42125C66.1987 9.24525 66.5153 9.15625 66.8618 9.15625C67.2998 9.15625 67.6642 9.29825 67.9539 9.58325C68.3143 9.93225 68.4945 10.4533 68.4945 11.1453V13.9693Z" fill="white"/>
<path d="M71.3724 13.9708H70.3301V7.09375H71.3724V13.9708Z" fill="white"/>
<path d="M77.5144 11.5742C77.5144 12.2992 77.3084 12.8932 76.8962 13.3592C76.4641 13.8382 75.8907 14.0772 75.1769 14.0772C74.487 14.0772 73.9384 13.8482 73.5302 13.3882C73.1221 12.9292 72.918 12.3502 72.918 11.6522C72.918 10.9222 73.128 10.3232 73.5501 9.85816C73.9723 9.39316 74.5397 9.16016 75.2535 9.16016C75.9435 9.16016 76.496 9.38916 76.9161 9.84816C77.3143 10.2942 77.5144 10.8702 77.5144 11.5742ZM76.4313 11.6082C76.4313 11.1732 76.3377 10.8002 76.1515 10.4892C75.9335 10.1132 75.6209 9.92516 75.2167 9.92516C74.7966 9.92516 74.478 10.1132 74.26 10.4892C74.0728 10.8002 73.9802 11.1792 73.9802 11.6272C73.9802 12.0622 74.0738 12.4352 74.26 12.7462C74.486 13.1222 74.8006 13.3102 75.2068 13.3102C75.605 13.3102 75.9166 13.1192 76.1416 12.7362C76.3357 12.4192 76.4313 12.0432 76.4313 11.6082Z" fill="white"/>
<path d="M82.5637 13.9702H81.6269L81.5493 13.4272H81.5204C81.1998 13.8602 80.7429 14.0772 80.1495 14.0772C79.7065 14.0772 79.3481 13.9342 79.0783 13.6502C78.8334 13.3922 78.7109 13.0712 78.7109 12.6902C78.7109 12.1142 78.9499 11.6752 79.4307 11.3712C79.9106 11.0672 80.5856 10.9182 81.4547 10.9252V10.8372C81.4547 10.2162 81.1301 9.90616 80.48 9.90616C80.0171 9.90616 79.6089 10.0232 79.2565 10.2552L79.0444 9.56716C79.4805 9.29616 80.0191 9.16016 80.6543 9.16016C81.8808 9.16016 82.496 9.81016 82.496 11.1102V12.8462C82.496 13.3172 82.5189 13.6922 82.5637 13.9702ZM81.4806 12.3502V11.6232C80.3297 11.6032 79.7543 11.9202 79.7543 12.5732C79.7543 12.8192 79.82 13.0032 79.9544 13.1262C80.0888 13.2492 80.26 13.3102 80.4641 13.3102C80.6931 13.3102 80.9071 13.2372 81.1023 13.0922C81.2984 12.9462 81.4188 12.7612 81.4636 12.5342C81.4746 12.4832 81.4806 12.4212 81.4806 12.3502Z" fill="white"/>
<path d="M88.4937 13.9707H87.5678L87.519 13.2137H87.4901C87.1945 13.7897 86.6907 14.0777 85.9829 14.0777C85.4174 14.0777 84.9465 13.8547 84.5732 13.4087C84.1998 12.9627 84.0137 12.3837 84.0137 11.6727C84.0137 10.9097 84.2158 10.2917 84.622 9.81975C85.0152 9.37975 85.497 9.15975 86.0705 9.15975C86.7007 9.15975 87.1417 9.37275 87.3926 9.79975H87.4125V7.09375H88.4568V12.7007C88.4568 13.1597 88.4688 13.5827 88.4937 13.9707ZM87.4125 11.9827V11.1967C87.4125 11.0608 87.4025 10.9508 87.3836 10.8668C87.3249 10.6147 87.1984 10.4027 87.0063 10.2317C86.8122 10.0607 86.5782 9.97475 86.3084 9.97475C85.9192 9.97475 85.6145 10.1297 85.3905 10.4407C85.1685 10.7517 85.056 11.1487 85.056 11.6337C85.056 12.0997 85.1625 12.4777 85.3766 12.7687C85.6026 13.0787 85.9072 13.2337 86.2885 13.2337C86.631 13.2337 86.9048 13.1047 87.1128 12.8457C87.3139 12.6067 87.4125 12.3187 87.4125 11.9827Z" fill="white"/>
<path d="M97.4168 11.5742C97.4168 12.2992 97.2107 12.8932 96.7986 13.3592C96.3665 13.8382 95.795 14.0772 95.0792 14.0772C94.3913 14.0772 93.8428 13.8482 93.4326 13.3882C93.0244 12.9292 92.8203 12.3502 92.8203 11.6522C92.8203 10.9222 93.0304 10.3232 93.4525 9.85816C93.8746 9.39316 94.4421 9.16016 95.1579 9.16016C95.8458 9.16016 96.4003 9.38916 96.8185 9.84816C97.2167 10.2942 97.4168 10.8702 97.4168 11.5742ZM96.3356 11.6082C96.3356 11.1732 96.242 10.8002 96.0559 10.4892C95.8359 10.1132 95.5252 9.92516 95.1191 9.92516C94.7009 9.92516 94.3823 10.1132 94.1623 10.4892C93.9752 10.8002 93.8826 11.1792 93.8826 11.6272C93.8826 12.0622 93.9762 12.4352 94.1623 12.7462C94.3883 13.1222 94.7029 13.3102 95.1091 13.3102C95.5073 13.3102 95.8209 13.1192 96.0459 12.7362C96.2381 12.4192 96.3356 12.0432 96.3356 11.6082Z" fill="white"/>
<path d="M103.027 13.9693H101.984V11.2693C101.984 10.4373 101.67 10.0212 101.038 10.0212C100.728 10.0212 100.478 10.1353 100.285 10.3643C100.092 10.5933 99.9952 10.8633 99.9952 11.1723V13.9683H98.9509V10.6023C98.9509 10.1883 98.939 9.73925 98.9141 9.25325H99.83L99.8788 9.99025H99.9076C100.03 9.76125 100.211 9.57225 100.448 9.42125C100.732 9.24525 101.048 9.15625 101.395 9.15625C101.832 9.15625 102.196 9.29825 102.486 9.58325C102.848 9.93225 103.027 10.4533 103.027 11.1453V13.9693Z" fill="white"/>
<path d="M110.048 10.041H108.899V12.331C108.899 12.913 109.103 13.204 109.507 13.204C109.694 13.204 109.85 13.188 109.972 13.155L109.999 13.95C109.793 14.028 109.522 14.067 109.189 14.067C108.776 14.067 108.456 13.941 108.224 13.689C107.991 13.437 107.875 13.013 107.875 12.418V10.041H107.189V9.25603H107.875V8.39203L108.898 8.08203V9.25503H110.047V10.041H110.048Z" fill="white"/>
<path d="M115.57 13.9708H114.526V11.2908C114.526 10.4458 114.211 10.0227 113.581 10.0227C113.097 10.0227 112.766 10.2678 112.585 10.7578C112.554 10.8608 112.536 10.9868 112.536 11.1348V13.9698H111.494V7.09375H112.536V9.93475H112.556C112.885 9.41775 113.356 9.15975 113.966 9.15975C114.398 9.15975 114.756 9.30175 115.039 9.58675C115.393 9.94175 115.57 10.4698 115.57 11.1678V13.9708Z" fill="white"/>
<path d="M121.268 11.3913C121.268 11.5793 121.254 11.7373 121.229 11.8663H118.1C118.114 12.3323 118.263 12.6873 118.553 12.9333C118.818 13.1533 119.159 13.2633 119.578 13.2633C120.041 13.2633 120.463 13.1893 120.843 13.0403L121.006 13.7683C120.561 13.9623 120.038 14.0593 119.431 14.0593C118.705 14.0593 118.132 13.8443 117.718 13.4143C117.302 12.9843 117.096 12.4073 117.096 11.6833C117.096 10.9723 117.288 10.3803 117.675 9.90834C118.079 9.40434 118.626 9.15234 119.316 9.15234C119.991 9.15234 120.503 9.40434 120.85 9.90834C121.13 10.3083 121.268 10.8033 121.268 11.3913ZM120.273 11.1203C120.28 10.8093 120.212 10.5413 120.07 10.3153C119.889 10.0243 119.613 9.87834 119.24 9.87834C118.9 9.87834 118.622 10.0203 118.41 10.3053C118.237 10.5323 118.134 10.8033 118.1 11.1203H120.273Z" fill="white"/>
</g>
<defs>
<clipPath id="clip0_4709_9538">
<rect width="134.4" height="40" fill="white" transform="translate(0.599609 0.539062)"/>
</clipPath>
</defs>
</svg>
