<svg width="135" height="41" viewBox="0 0 135 41" fill="none" xmlns="http://www.w3.org/2000/svg">
<g clip-path="url(#clip0_4709_9570)">
<path d="M130 40.5391H5C2.2 40.5391 0 38.3391 0 35.5391V5.53906C0 2.73906 2.2 0.539062 5 0.539062H130C132.8 0.539062 135 2.73906 135 5.53906V35.5391C135 38.3391 132.8 40.5391 130 40.5391Z" fill="#161616"/>
<path d="M130 1.33906C132.3 1.33906 134.2 3.23906 134.2 5.53906V35.5391C134.2 37.8391 132.3 39.7391 130 39.7391H5C2.7 39.7391 0.8 37.8391 0.8 35.5391V5.53906C0.8 3.23906 2.7 1.33906 5 1.33906H130ZM130 0.539062H5C2.2 0.539062 0 2.83906 0 5.53906V35.5391C0 38.3391 2.2 40.5391 5 40.5391H130C132.8 40.5391 135 38.3391 135 35.5391V5.53906C135 2.83906 132.8 0.539062 130 0.539062Z" fill="#A6A6A6"/>
<path d="M47.4004 10.7375C47.4004 11.5375 47.2004 12.2375 46.7004 12.7375C46.1004 13.3375 45.4004 13.6375 44.5004 13.6375C43.6004 13.6375 42.9004 13.3375 42.3004 12.7375C41.7004 12.1375 41.4004 11.4375 41.4004 10.5375C41.4004 9.6375 41.7004 8.9375 42.3004 8.3375C42.9004 7.7375 43.6004 7.4375 44.5004 7.4375C44.9004 7.4375 45.3004 7.5375 45.7004 7.7375C46.1004 7.9375 46.4004 8.1375 46.6004 8.4375L46.1004 8.9375C45.7004 8.4375 45.2004 8.2375 44.5004 8.2375C43.9004 8.2375 43.3004 8.4375 42.9004 8.9375C42.4004 9.3375 42.2004 9.9375 42.2004 10.6375C42.2004 11.3375 42.4004 11.9375 42.9004 12.3375C43.4004 12.7375 43.9004 13.0375 44.5004 13.0375C45.2004 13.0375 45.7004 12.8375 46.2004 12.3375C46.5004 12.0375 46.7004 11.6375 46.7004 11.1375H44.5004V10.3375H47.4004C47.4004 10.4375 47.4004 10.6375 47.4004 10.7375Z" fill="white" stroke="white" stroke-width="0.2" stroke-miterlimit="10"/>
<path d="M52 8.23906H49.3V10.1391H51.8V10.8391H49.3V12.7391H52V13.5391H48.5V7.53906H52V8.23906Z" fill="white" stroke="white" stroke-width="0.2" stroke-miterlimit="10"/>
<path d="M55.3008 13.5391H54.5008V8.23906H52.8008V7.53906H57.0008V8.23906H55.3008V13.5391Z" fill="white" stroke="white" stroke-width="0.2" stroke-miterlimit="10"/>
<path d="M59.9004 13.5391V7.53906H60.7004V13.5391H59.9004Z" fill="white" stroke="white" stroke-width="0.2" stroke-miterlimit="10"/>
<path d="M64.0996 13.5391H63.2996V8.23906H61.5996V7.53906H65.6996V8.23906H63.9996V13.5391H64.0996Z" fill="white" stroke="white" stroke-width="0.2" stroke-miterlimit="10"/>
<path d="M73.6008 12.7375C73.0008 13.3375 72.3008 13.6375 71.4008 13.6375C70.5008 13.6375 69.8008 13.3375 69.2008 12.7375C68.6008 12.1375 68.3008 11.4375 68.3008 10.5375C68.3008 9.6375 68.6008 8.9375 69.2008 8.3375C69.8008 7.7375 70.5008 7.4375 71.4008 7.4375C72.3008 7.4375 73.0008 7.7375 73.6008 8.3375C74.2008 8.9375 74.5008 9.6375 74.5008 10.5375C74.5008 11.4375 74.2008 12.1375 73.6008 12.7375ZM69.8008 12.2375C70.2008 12.6375 70.8008 12.9375 71.4008 12.9375C72.0008 12.9375 72.6008 12.7375 73.0008 12.2375C73.4008 11.8375 73.7008 11.2375 73.7008 10.5375C73.7008 9.8375 73.5008 9.2375 73.0008 8.8375C72.6008 8.4375 72.0008 8.1375 71.4008 8.1375C70.8008 8.1375 70.2008 8.3375 69.8008 8.8375C69.4008 9.2375 69.1008 9.8375 69.1008 10.5375C69.1008 11.2375 69.3008 11.8375 69.8008 12.2375Z" fill="white" stroke="white" stroke-width="0.2" stroke-miterlimit="10"/>
<path d="M75.5996 13.5391V7.53906H76.4996L79.3996 12.2391V11.0391V7.53906H80.1996V13.5391H79.3996L76.2996 8.63906V9.83906V13.5391H75.5996Z" fill="white" stroke="white" stroke-width="0.2" stroke-miterlimit="10"/>
<path d="M68.0996 22.3406C65.6996 22.3406 63.7996 24.1406 63.7996 26.6406C63.7996 29.0406 65.6996 30.9406 68.0996 30.9406C70.4996 30.9406 72.3996 29.1406 72.3996 26.6406C72.3996 24.0406 70.4996 22.3406 68.0996 22.3406ZM68.0996 29.1406C66.7996 29.1406 65.6996 28.0406 65.6996 26.5406C65.6996 25.0406 66.7996 23.9406 68.0996 23.9406C69.3996 23.9406 70.4996 24.9406 70.4996 26.5406C70.4996 28.0406 69.3996 29.1406 68.0996 29.1406ZM58.7996 22.3406C56.3996 22.3406 54.4996 24.1406 54.4996 26.6406C54.4996 29.0406 56.3996 30.9406 58.7996 30.9406C61.1996 30.9406 63.0996 29.1406 63.0996 26.6406C63.0996 24.0406 61.1996 22.3406 58.7996 22.3406ZM58.7996 29.1406C57.4996 29.1406 56.3996 28.0406 56.3996 26.5406C56.3996 25.0406 57.4996 23.9406 58.7996 23.9406C60.0996 23.9406 61.1996 24.9406 61.1996 26.5406C61.1996 28.0406 60.0996 29.1406 58.7996 29.1406ZM47.6996 23.6406V25.4406H51.9996C51.8996 26.4406 51.4996 27.2406 50.9996 27.7406C50.3996 28.3406 49.3996 29.0406 47.6996 29.0406C44.9996 29.0406 42.9996 26.9406 42.9996 24.2406C42.9996 21.5406 45.0996 19.4406 47.6996 19.4406C49.0996 19.4406 50.1996 20.0406 50.9996 20.7406L52.2996 19.4406C51.1996 18.4406 49.7996 17.6406 47.7996 17.6406C44.1996 17.6406 41.0996 20.6406 41.0996 24.2406C41.0996 27.8406 44.1996 30.8406 47.7996 30.8406C49.7996 30.8406 51.1996 30.2406 52.3996 28.9406C53.5996 27.7406 53.9996 26.0406 53.9996 24.7406C53.9996 24.3406 53.9996 23.9406 53.8996 23.6406H47.6996ZM93.0996 25.0406C92.6996 24.0406 91.6996 22.3406 89.4996 22.3406C87.2996 22.3406 85.4996 24.0406 85.4996 26.6406C85.4996 29.0406 87.2996 30.9406 89.6996 30.9406C91.5996 30.9406 92.7996 29.7406 93.1996 29.0406L91.7996 28.0406C91.2996 28.7406 90.6996 29.2406 89.6996 29.2406C88.6996 29.2406 88.0996 28.8406 87.5996 27.9406L93.2996 25.5406L93.0996 25.0406ZM87.2996 26.4406C87.2996 24.8406 88.5996 23.9406 89.4996 23.9406C90.1996 23.9406 90.8996 24.3406 91.0996 24.8406L87.2996 26.4406ZM82.5996 30.5406H84.4996V18.0406H82.5996V30.5406ZM79.5996 23.2406C79.0996 22.7406 78.2996 22.2406 77.2996 22.2406C75.1996 22.2406 73.1996 24.1406 73.1996 26.5406C73.1996 28.9406 75.0996 30.7406 77.2996 30.7406C78.2996 30.7406 79.0996 30.2406 79.4996 29.7406H79.5996V30.3406C79.5996 31.9406 78.6996 32.8406 77.2996 32.8406C76.1996 32.8406 75.3996 32.0406 75.1996 31.3406L73.5996 32.0406C74.0996 33.1406 75.2996 34.5406 77.3996 34.5406C79.5996 34.5406 81.3996 33.2406 81.3996 30.1406V22.5406H79.5996V23.2406ZM77.3996 29.1406C76.0996 29.1406 74.9996 28.0406 74.9996 26.5406C74.9996 25.0406 76.0996 23.9406 77.3996 23.9406C78.6996 23.9406 79.6996 25.0406 79.6996 26.5406C79.6996 28.0406 78.6996 29.1406 77.3996 29.1406ZM101.8 18.0406H97.2996V30.5406H99.1996V25.8406H101.8C103.9 25.8406 105.9 24.3406 105.9 21.9406C105.9 19.5406 103.9 18.0406 101.8 18.0406ZM101.9 24.0406H99.1996V19.7406H101.9C103.3 19.7406 104.1 20.9406 104.1 21.8406C104 22.9406 103.2 24.0406 101.9 24.0406ZM113.4 22.2406C112 22.2406 110.6 22.8406 110.1 24.1406L111.8 24.8406C112.2 24.1406 112.8 23.9406 113.5 23.9406C114.5 23.9406 115.4 24.5406 115.5 25.5406V25.6406C115.2 25.4406 114.4 25.1406 113.6 25.1406C111.8 25.1406 110 26.1406 110 27.9406C110 29.6406 111.5 30.7406 113.1 30.7406C114.4 30.7406 115 30.1406 115.5 29.5406H115.6V30.5406H117.4V25.7406C117.2 23.5406 115.5 22.2406 113.4 22.2406ZM113.2 29.1406C112.6 29.1406 111.7 28.8406 111.7 28.0406C111.7 27.0406 112.8 26.7406 113.7 26.7406C114.5 26.7406 114.9 26.9406 115.4 27.1406C115.2 28.3406 114.2 29.1406 113.2 29.1406ZM123.7 22.5406L121.6 27.9406H121.5L119.3 22.5406H117.3L120.6 30.1406L118.7 34.3406H120.6L125.7 22.5406H123.7ZM106.9 30.5406H108.8V18.0406H106.9V30.5406Z" fill="white"/>
<path d="M10.4 8.03906C10.1 8.33906 10 8.83906 10 9.43906V31.5391C10 32.1391 10.2 32.6391 10.5 32.9391L10.6 33.0391L23 20.6391V20.5391V20.4391L10.4 8.03906Z" fill="url(#paint0_linear_4709_9570)"/>
<path d="M27.0004 24.8398L22.9004 20.7398V20.5398V20.4398L27.0004 16.3398L27.1004 16.4398L32.0004 19.2398C33.4004 20.0398 33.4004 21.3398 32.0004 22.1398L27.0004 24.8398Z" fill="url(#paint1_linear_4709_9570)"/>
<path d="M27.1004 24.7391L22.9004 20.5391L10.4004 33.0391C10.9004 33.5391 11.6004 33.5391 12.5004 33.1391L27.1004 24.7391Z" fill="url(#paint2_linear_4709_9570)"/>
<path d="M27.1004 16.3397L12.5004 8.03966C11.6004 7.53966 10.9004 7.63966 10.4004 8.13966L22.9004 20.5397L27.1004 16.3397Z" fill="url(#paint3_linear_4709_9570)"/>
<path opacity="0.2" d="M27.0004 24.6406L12.5004 32.8406C11.7004 33.3406 11.0004 33.2406 10.5004 32.8406L10.4004 32.9406L10.5004 33.0406C11.0004 33.4406 11.7004 33.5406 12.5004 33.0406L27.0004 24.6406Z" fill="#161616"/>
<path opacity="0.12" d="M10.4 32.8414C10.1 32.5414 10 32.0414 10 31.4414V31.5414C10 32.1414 10.2 32.6414 10.5 32.9414V32.8414H10.4Z" fill="#161616"/>
<path opacity="0.12" d="M32 21.8391L27 24.6391L27.1 24.7391L32 21.9391C32.7 21.5391 33 21.0391 33 20.5391C33 21.0391 32.6 21.4391 32 21.8391Z" fill="#161616"/>
<path opacity="0.25" d="M12.5 8.14031L32 19.2403C32.6 19.6403 33 20.0403 33 20.5403C33 20.0403 32.7 19.5403 32 19.1403L12.5 8.04031C11.1 7.24031 10 7.84031 10 9.44031V9.54031C10 8.04031 11.1 7.34031 12.5 8.14031Z" fill="white"/>
</g>
<defs>
<linearGradient id="paint0_linear_4709_9570" x1="21.7996" y1="9.24886" x2="5.0172" y2="26.0313" gradientUnits="userSpaceOnUse">
<stop stop-color="#00A0FF"/>
<stop offset="0.00657445" stop-color="#00A1FF"/>
<stop offset="0.2601" stop-color="#00BEFF"/>
<stop offset="0.5122" stop-color="#00D2FF"/>
<stop offset="0.7604" stop-color="#00DFFF"/>
<stop offset="1" stop-color="#00E3FF"/>
</linearGradient>
<linearGradient id="paint1_linear_4709_9570" x1="33.8347" y1="20.5414" x2="9.63779" y2="20.5414" gradientUnits="userSpaceOnUse">
<stop stop-color="#FFE000"/>
<stop offset="0.4087" stop-color="#FFBD00"/>
<stop offset="0.7754" stop-color="#FFA500"/>
<stop offset="1" stop-color="#FF9C00"/>
</linearGradient>
<linearGradient id="paint2_linear_4709_9570" x1="24.8273" y1="22.8353" x2="2.06899" y2="45.5936" gradientUnits="userSpaceOnUse">
<stop stop-color="#FF3A44"/>
<stop offset="1" stop-color="#C31162"/>
</linearGradient>
<linearGradient id="paint3_linear_4709_9570" x1="7.29759" y1="0.715963" x2="17.4602" y2="10.8785" gradientUnits="userSpaceOnUse">
<stop stop-color="#32A071"/>
<stop offset="0.0685" stop-color="#2DA771"/>
<stop offset="0.4762" stop-color="#15CF74"/>
<stop offset="0.8009" stop-color="#06E775"/>
<stop offset="1" stop-color="#00F076"/>
</linearGradient>
<clipPath id="clip0_4709_9570">
<rect width="135" height="40" fill="white" transform="translate(0 0.539062)"/>
</clipPath>
</defs>
</svg>
